<?xml version="1.0" standalone="no"?>
<!DOCTYPE svg PUBLIC "-//W3C//DTD SVG 20010904//EN"
 "http://www.w3.org/TR/2001/REC-SVG-20010904/DTD/svg10.dtd">
<svg version="1.0" xmlns="http://www.w3.org/2000/svg"
 width="883.000000pt" height="856.000000pt" viewBox="0 0 883.000000 856.000000"
 preserveAspectRatio="xMidYMid meet">

<g transform="translate(0.000000,856.000000) scale(0.100000,-0.100000)"
fill="#000000" stroke="none">
<path d="M1265 8545 c-5 -2 -41 -6 -80 -9 -90 -6 -146 -14 -153 -21 -3 -3 -6
-18 -7 -33 0 -35 -30 -42 -39 -9 -5 23 -7 23 -55 13 -43 -8 -47 -11 -33 -22
15 -11 14 -15 -13 -38 -34 -30 -57 -33 -75 -11 -15 18 -38 13 -90 -19 -19 -11
-38 -20 -42 -18 -5 1 -8 -2 -8 -8 0 -5 -7 -10 -15 -10 -35 0 -163 -99 -262
-201 -124 -128 -219 -268 -253 -374 -7 -22 -15 -44 -19 -50 -3 -5 -6 -12 -6
-15 -1 -3 -8 -21 -17 -40 -23 -49 -38 -110 -27 -110 5 0 9 6 9 14 0 7 7 19 15
26 12 10 15 9 15 -6 0 -11 12 -32 27 -49 41 -43 38 -65 -9 -72 -14 -2 -16 1
-8 21 5 13 6 33 3 45 -4 16 -8 18 -18 8 -7 -7 -16 -23 -20 -35 -5 -17 -10 -20
-19 -13 -17 14 -27 3 -17 -18 17 -33 29 -81 21 -81 -5 0 -10 6 -13 13 -12 32
-28 -18 -33 -104 -9 -146 23 -369 70 -489 64 -161 87 -203 137 -239 25 -19 33
-21 40 -10 5 8 9 19 9 24 0 6 -5 3 -10 -5 -8 -12 -10 -11 -10 6 0 11 -5 25
-11 31 -7 7 -8 19 -4 30 8 18 11 27 14 39 0 4 8 1 16 -6 8 -6 23 -9 35 -5 11
4 20 2 20 -4 0 -6 -6 -10 -13 -9 -8 2 -12 -11 -12 -42 0 -25 2 -47 6 -50 15
-14 51 -82 39 -75 -7 4 -2 -11 10 -33 13 -23 29 -42 35 -42 6 0 33 -22 60 -50
27 -27 54 -50 60 -50 6 0 26 -11 45 -25 38 -28 52 -25 25 5 -14 15 -15 20 -4
20 8 0 25 -16 39 -35 14 -19 33 -37 44 -41 10 -3 35 -20 55 -38 20 -18 54 -39
76 -48 69 -28 203 -61 225 -55 28 7 17 -7 -42 -53 -49 -40 -49 -40 -25 -49 14
-5 42 -13 63 -17 50 -9 69 -13 97 -20 36 -10 300 -14 311 -5 6 5 20 7 31 5 20
-3 126 13 155 23 8 4 20 7 25 8 6 1 15 3 20 5 6 1 15 3 20 4 6 1 19 6 30 10
11 5 54 23 95 39 146 60 264 138 384 255 265 258 399 583 395 957 -4 357 -153
682 -430 939 -79 73 -142 117 -251 175 -83 45 -255 107 -266 97 -3 -4 -1 -11
7 -15 7 -5 11 -14 10 -22 -2 -8 2 -23 8 -34 10 -18 8 -20 -18 -21 -32 -2 -40
12 -11 19 9 3 1 5 -19 6 -24 1 -39 7 -43 17 -8 22 -8 26 5 19 16 -11 59 -13
53 -4 -3 5 -14 9 -25 9 -19 0 -102 54 -94 62 2 2 -4 4 -13 4 -9 1 -62 4 -117
7 -55 3 -104 4 -110 2z m52 -29 c2 -2 -10 -7 -28 -11 -22 -5 -28 -10 -18 -16
10 -6 8 -12 -11 -29 -21 -18 -22 -24 -12 -40 7 -11 12 -27 12 -35 0 -9 9 -15
23 -16 12 0 16 -3 10 -6 -10 -3 -10 -10 -1 -26 13 -27 27 -37 51 -37 25 0 21
15 -10 45 -15 14 -23 25 -17 25 5 0 15 -5 22 -12 9 -9 12 -8 12 5 0 18 26 22
48 8 11 -6 10 -12 -5 -26 -16 -17 -16 -18 -1 -12 11 4 27 -2 44 -16 l26 -23
-41 -12 c-22 -7 -45 -22 -51 -32 -6 -11 -17 -20 -25 -20 -8 0 -15 -6 -15 -14
0 -10 -15 -13 -57 -12 -33 0 -58 -4 -60 -11 -2 -6 -13 -9 -24 -6 -17 5 -15 9
18 33 28 21 41 26 50 18 25 -20 13 16 -12 41 -18 17 -29 20 -38 13 -8 -7 -20
-4 -39 13 -16 13 -28 29 -28 36 0 8 -4 8 -13 1 -7 -6 -33 -15 -57 -21 -37 -8
-48 -7 -63 7 -11 10 -17 25 -14 39 3 14 -1 23 -9 23 -7 0 -15 4 -18 9 -4 5 2
7 12 4 10 -2 24 3 31 11 7 9 32 21 55 26 22 6 51 16 64 22 19 10 25 9 32 -2 9
-14 14 -7 11 13 0 4 5 7 13 7 8 0 21 6 28 13 27 24 53 35 77 32 13 -2 25 -6
28 -9z m183 -112 c0 -2 -7 -4 -15 -4 -8 0 -15 4 -15 10 0 5 7 7 15 4 8 -4 15
-8 15 -10z m84 -29 c19 -18 22 -25 12 -25 -9 0 -18 0 -21 0 -3 0 -5 3 -6 8 0
4 -7 11 -16 16 -11 6 -19 4 -25 -7 -5 -9 -15 -14 -23 -11 -23 9 -18 19 18 31
17 5 32 11 33 12 1 0 13 -10 28 -24z m-860 -19 c-10 -8 -21 -12 -24 -10 -5 6
21 24 34 24 6 0 1 -6 -10 -14z m1017 6 c-10 -3 -7 -8 10 -18 l24 -12 -29 -12
c-16 -6 -36 -10 -44 -8 -14 3 -13 5 1 19 9 10 12 20 7 25 -5 5 2 10 18 10 15
1 21 -1 13 -4z m49 4 c0 -2 -7 -7 -16 -10 -8 -3 -12 -2 -9 4 6 10 25 14 25 6z
m143 -20 c35 -15 117 -98 117 -119 0 -10 -33 -47 -43 -47 -2 0 -2 15 -1 34 2
21 -3 39 -11 46 -8 7 -15 19 -15 26 0 18 -69 61 -106 67 l-29 4 28 2 c15 0 42
-5 60 -13z m-959 -5 c4 -5 1 -11 -4 -13 -6 -2 -12 -12 -14 -23 -2 -11 -7 -18
-12 -16 -5 1 -8 7 -6 12 1 5 -4 9 -12 9 -8 0 -16 6 -19 14 -4 10 3 16 21 19
15 2 30 5 34 6 4 0 9 -3 12 -8z m-324 -19 c0 -13 -12 -22 -22 -16 -10 6 -1 24
13 24 5 0 9 -4 9 -8z m1170 -17 c14 -19 14 -19 -2 -6 -10 7 -18 18 -18 24 0 6
1 8 3 6 1 -2 9 -13 17 -24z m-718 -22 c-31 -15 -62 -12 -62 6 0 5 21 9 47 9
l47 0 -32 -15z m38 -24 c0 -6 -4 -7 -10 -4 -5 3 -10 11 -10 16 0 6 5 7 10 4 6
-3 10 -11 10 -16z m420 -3 c25 -3 62 -8 84 -11 43 -6 84 -24 55 -25 -9 0 -28
-6 -42 -13 -22 -12 -24 -18 -20 -58 11 -99 9 -114 -12 -116 -11 -1 -30 -5 -42
-8 -19 -6 -21 -4 -19 21 4 33 -18 64 -46 64 -10 0 -18 5 -18 11 0 5 -11 27
-25 47 -14 20 -25 32 -25 25 0 -6 -9 -13 -20 -16 -23 -6 -24 -3 -9 26 21 40
49 64 72 61 12 -1 42 -5 67 -8z m-270 -202 c0 -7 -13 -23 -28 -36 -16 -13 -32
-37 -37 -54 -4 -16 -10 -23 -12 -16 -8 20 -24 14 -59 -25 -30 -33 -39 -37 -76
-34 -24 1 -59 -5 -80 -15 -46 -21 -59 -12 -30 19 27 29 28 42 3 59 -19 14 -19
14 0 26 11 7 17 17 14 22 -3 5 6 20 20 34 22 22 32 24 78 21 29 -2 67 0 83 5
44 13 124 9 124 -6z m-830 -23 c0 -20 -20 -61 -29 -61 -5 0 -13 10 -17 22 -6
21 -7 21 -20 2 -8 -10 -29 -36 -47 -56 -83 -95 -94 -122 -53 -137 13 -5 26
-17 29 -25 4 -11 19 -16 46 -16 31 0 40 4 44 22 5 18 8 19 22 8 10 -9 12 -16
5 -25 -5 -6 -7 -15 -3 -18 3 -4 0 -7 -7 -7 -8 0 -24 -10 -38 -22 -22 -21 -24
-22 -33 -5 -6 9 -18 17 -27 17 -10 0 -23 5 -28 10 -19 19 -52 19 -69 1 -9 -10
-15 -22 -14 -27 3 -14 -21 -67 -28 -61 -3 3 2 24 11 47 19 47 20 53 6 45 -5
-3 -7 0 -4 9 5 13 1 14 -25 6 -63 -18 -28 42 85 145 102 94 132 115 150 108 8
-3 17 2 20 11 7 17 24 22 24 7z m80 -16 c-6 -8 -9 -18 -6 -24 3 -5 -1 -11 -9
-15 -8 -3 -15 -2 -15 2 0 10 30 52 37 52 3 0 0 -7 -7 -15z m1143 -5 c-3 -11
-12 -20 -19 -20 -17 0 -18 12 -2 28 18 18 27 15 21 -8z m98 -21 c8 -15 8 -19
0 -15 -6 4 -15 -2 -19 -15 -6 -16 -11 -19 -17 -10 -6 11 11 61 21 61 2 0 8
-10 15 -21z m-491 -4 c-7 -8 -19 -15 -27 -15 -13 0 -13 3 -3 15 7 8 19 15 27
15 13 0 13 -3 3 -15z m-575 -21 c14 -15 25 -32 25 -38 0 -6 -5 -4 -10 4 -15
23 -12 2 5 -30 15 -28 11 -60 -6 -60 -22 0 -6 -29 21 -40 35 -15 35 -31 -1
-41 -22 -7 -23 -7 -2 -8 15 -1 25 -11 33 -36 11 -33 19 -39 48 -36 6 1 12 -3
12 -9 0 -5 -6 -9 -12 -7 -7 1 -13 -5 -13 -13 0 -8 11 -17 24 -18 22 -3 23 -1
18 28 -6 28 -5 31 16 28 33 -5 38 -19 16 -47 -18 -22 -18 -26 -4 -34 15 -8 15
-10 -1 -28 -9 -10 -23 -19 -29 -19 -16 0 -45 -44 -45 -68 0 -11 7 -25 15 -32
22 -18 20 -70 -3 -70 -10 0 -23 -5 -29 -11 -7 -7 -28 -12 -47 -13 -20 -1 -36
-4 -36 -8 0 -5 0 -15 0 -23 0 -8 6 -12 13 -9 34 13 73 8 91 -10 18 -18 18 -20
2 -32 -9 -6 -18 -21 -19 -32 -1 -13 -7 -18 -19 -14 -24 6 -23 14 3 30 16 10
18 17 10 25 -8 8 -16 6 -29 -6 -25 -23 -64 -21 -84 2 -9 10 -24 23 -34 29 -15
8 -16 13 -5 26 7 9 17 14 21 11 4 -3 14 3 21 12 12 14 11 15 -11 8 -14 -4 -33
-17 -43 -29 -10 -11 -16 -15 -12 -8 3 6 -1 15 -9 18 -9 3 -16 14 -16 24 0 10
-9 20 -21 23 -15 4 -19 11 -15 25 8 25 -22 62 -51 65 -12 0 -20 4 -17 8 6 10
41 -1 55 -17 6 -8 19 -14 28 -13 10 0 12 2 3 6 -6 2 -10 9 -6 14 3 5 19 0 35
-12 l29 -20 26 20 25 20 -29 15 c-20 10 -32 12 -39 5 -8 -8 -17 -7 -31 0 -14
7 -23 8 -27 1 -3 -5 -12 -10 -18 -10 -7 0 -4 5 6 11 12 7 15 17 11 35 -5 19
-2 24 13 24 23 0 48 25 57 58 8 25 15 27 50 11 20 -9 29 -9 40 1 19 15 16 51
-4 67 -11 9 -12 15 -4 20 9 6 8 12 -2 21 -11 10 -14 10 -14 0 -1 -28 -46 -65
-94 -77 -63 -15 -79 -4 -53 40 24 43 22 52 -13 44 -19 -4 -30 -3 -30 4 0 6 -8
11 -17 11 -13 0 -14 3 -6 8 12 8 35 97 27 105 -10 10 57 70 91 82 61 22 93 19
120 -11z m1032 -74 c-2 -9 -1 -24 4 -32 6 -10 2 -21 -11 -33 -12 -10 -20 -13
-20 -7 0 7 -5 12 -11 12 -5 0 -7 -4 -4 -10 3 -5 2 -10 -4 -10 -5 0 -15 -2 -23
-5 -7 -3 -19 -1 -27 4 -11 7 -10 16 5 50 15 34 23 41 46 41 15 0 28 5 28 11 0
5 5 7 11 3 6 -3 9 -14 6 -24z m-1272 -10 c3 -5 1 -10 -4 -10 -6 0 -11 5 -11
10 0 6 2 10 4 10 3 0 8 -4 11 -10z m-30 -60 c3 -5 1 -10 -4 -10 -6 0 -11 5
-11 10 0 6 2 10 4 10 3 0 8 -4 11 -10z m1186 -24 c14 -30 14 -33 1 -28 -12 4
-14 1 -9 -12 5 -13 3 -17 -7 -13 -9 4 -17 -2 -21 -14 -9 -27 -25 -24 -25 6 0
14 -4 25 -10 25 -5 0 -12 -11 -16 -25 -7 -27 -9 -28 -39 -15 -19 8 -19 9 3 9
15 1 22 7 22 21 0 11 4 20 9 20 5 0 12 11 15 25 6 24 26 35 26 14 0 -5 5 -7
10 -4 6 4 8 11 5 16 -4 5 0 9 7 9 8 0 21 -15 29 -34z m-191 -56 c0 -5 -2 -10
-4 -10 -3 0 -8 5 -11 10 -3 6 -1 10 4 10 6 0 11 -4 11 -10z m-1179 -66 c-5
-16 -10 -24 -10 -17 -1 6 -4 19 -8 29 -4 12 -3 15 5 10 7 -4 12 -2 12 5 0 7 2
10 5 8 2 -3 0 -18 -4 -35z m449 16 c0 -5 -4 -10 -10 -10 -5 0 -10 5 -10 10 0
6 5 10 10 10 6 0 10 -4 10 -10z m655 -12 c-6 -21 -5 -22 8 -6 15 19 27 14 27
-10 0 -7 10 -22 23 -32 12 -10 18 -22 13 -27 -5 -4 -11 -2 -13 5 -4 10 -9 10
-23 -3 -26 -24 -59 -15 -88 24 -24 30 -24 33 -7 29 12 -2 27 5 38 19 23 29 30
29 22 1z m-925 2 c-20 -13 -43 -13 -35 0 3 6 16 10 28 10 18 0 19 -2 7 -10z
m1170 -32 c0 -6 11 -7 26 -4 24 6 25 6 10 -9 -9 -9 -16 -21 -16 -26 0 -5 -5
-9 -12 -9 -7 0 -24 -11 -38 -25 l-26 -25 -22 41 c-23 44 -21 95 4 85 7 -3 16
-1 19 4 7 11 55 -17 55 -32z m832 -13 c3 -14 1 -25 -3 -25 -5 0 -9 11 -9 25 0
14 2 25 4 25 2 0 6 -11 8 -25z m-791 -48 c-6 -6 -14 -7 -18 -2 -5 4 -2 10 5
12 6 3 13 12 13 21 1 14 2 14 6 -2 3 -10 0 -23 -6 -29z m-630 17 c10 -13 10
-17 -1 -24 -10 -6 -18 -4 -24 8 -5 9 -14 20 -20 24 -6 5 -2 8 10 8 12 0 27 -7
35 -16z m596 -46 c-3 -7 -5 -2 -5 12 0 14 2 19 5 13 2 -7 2 -19 0 -25z m197
16 c21 -21 20 -34 -3 -34 -26 0 -44 23 -29 38 15 15 13 15 32 -4z m-1442 -6
c-9 -9 -15 -9 -24 0 -9 9 -7 12 12 12 19 0 21 -3 12 -12z m1028 4 c0 -12 -41
-48 -62 -55 -12 -4 -18 -17 -18 -37 0 -17 -9 -39 -20 -50 -14 -14 -18 -25 -12
-36 9 -17 -7 -84 -21 -84 -5 0 -5 6 -2 13 4 6 -3 2 -14 -11 -11 -13 -17 -30
-14 -37 3 -9 -1 -15 -11 -15 -9 0 -16 -4 -16 -10 0 -5 7 -10 15 -10 8 0 15 -5
15 -11 0 -6 5 -7 13 -2 6 4 15 8 19 8 15 0 50 37 42 44 -17 11 -6 89 20 139 9
17 13 39 9 49 -6 15 -4 16 8 6 12 -10 22 -7 51 13 40 28 108 48 122 34 4 -4
-6 -20 -23 -35 -17 -16 -34 -37 -37 -49 -7 -21 -7 -21 -15 2 -11 29 -24 28
-46 -4 -10 -14 -28 -38 -40 -54 -27 -32 -28 -40 -9 -40 7 0 16 10 19 22 5 17
9 19 21 9 15 -12 32 1 22 17 -2 4 -1 14 5 22 7 13 9 13 10 0 1 -8 3 -27 4 -41
3 -19 -3 -30 -20 -39 -13 -7 -28 -9 -34 -6 -6 4 -11 0 -11 -8 0 -10 9 -16 21
-16 31 0 17 -24 -15 -27 -34 -2 -79 -30 -71 -44 4 -5 -1 -12 -10 -15 -15 -6
-15 -8 0 -24 12 -13 13 -20 5 -25 -6 -4 -14 -4 -17 -1 -4 3 0 6 8 6 10 1 9 4
-4 11 -20 12 -47 1 -27 -11 7 -4 9 -13 6 -19 -4 -6 -12 -9 -17 -6 -5 4 -9 -1
-9 -9 0 -18 -2 -19 -24 -10 -9 3 -16 17 -16 31 0 31 -18 65 -30 58 -5 -3 -7
-12 -3 -20 3 -8 1 -15 -5 -15 -6 0 -12 6 -15 13 -5 17 25 76 40 77 7 0 10 7 6
16 -4 10 1 17 16 21 11 3 21 10 21 15 0 6 -7 7 -17 2 -10 -4 -29 -7 -43 -6
-14 1 -33 2 -44 2 -16 1 -15 5 9 31 26 26 27 29 9 29 -20 0 -44 17 -44 31 0 4
18 5 40 2 38 -5 40 -4 40 21 0 36 17 33 33 -7 10 -22 21 -33 35 -33 19 0 20 4
15 43 -3 27 -2 43 5 43 5 0 13 11 16 25 4 14 11 25 17 25 6 0 7 -6 2 -12 -4
-7 10 4 31 25 37 35 66 48 66 29z m41 -15 c15 -11 14 -14 -7 -24 -22 -10 -24
-9 -24 13 0 27 7 29 31 11z m1056 -2 c0 -8 -4 -15 -9 -15 -4 0 -8 7 -8 15 0 8
4 15 8 15 5 0 9 -7 9 -15z m-2155 -3 c9 -2 9 -5 0 -14 -18 -18 -14 -38 8 -38
11 0 23 -7 27 -15 5 -14 8 -14 25 1 21 20 61 27 55 10 -2 -6 -11 -10 -21 -8
-9 2 -16 -2 -16 -8 0 -5 -5 -10 -11 -10 -6 0 -24 -11 -41 -25 -46 -39 -61 -34
-53 16 l7 42 -29 -21 c-17 -12 -33 -18 -37 -15 -13 13 -44 10 -39 -4 3 -7 -2
-13 -11 -13 -9 0 -17 9 -17 20 -1 11 -2 26 -3 33 -1 6 7 12 16 12 10 0 24 9
32 21 14 19 47 24 108 16z m626 -17 c3 -10 -4 -24 -13 -32 -15 -10 -16 -15 -6
-27 17 -20 38 -10 46 22 4 15 10 21 12 15 3 -7 10 -13 17 -13 6 0 19 -13 29
-29 15 -26 15 -30 1 -35 -8 -3 -14 -14 -12 -23 2 -10 -2 -18 -8 -18 -9 0 -33
-10 -106 -46 -10 -5 -22 -9 -27 -9 -15 0 0 40 21 54 16 11 19 21 13 46 -4 17
-13 34 -21 37 -8 3 -12 14 -10 26 3 12 5 30 5 39 1 25 55 19 59 -7z m622 -12
c0 -11 -26 -29 -37 -26 -20 7 -3 41 18 36 10 -3 19 -7 19 -10z m37 -20 c-16
-16 -17 -16 -17 3 0 26 11 37 24 24 7 -7 5 -16 -7 -27z m59 20 c17 -23 18 -47
2 -37 -7 4 -6 -1 3 -12 31 -37 34 -49 9 -31 -18 12 -27 14 -37 5 -25 -20 -39
7 -19 36 9 14 16 32 16 41 0 20 10 19 26 -2z m-592 -29 c3 -8 2 -13 -2 -11 -4
2 -15 7 -25 10 -10 4 -16 11 -12 16 8 13 32 3 39 -15z m1351 -34 c17 -33 9
-43 -29 -37 -20 4 -44 37 -26 37 5 0 10 7 10 15 0 26 29 16 45 -15z m-1275 -9
c0 -5 -9 -11 -20 -14 -20 -5 -26 3 -13 16 9 10 33 8 33 -2z m1183 -6 c4 -8 2
-17 -3 -20 -6 -4 -10 3 -10 14 0 25 6 27 13 6z m-804 -41 c-11 -14 -11 -18 4
-29 21 -15 22 -35 2 -35 -8 0 -15 5 -15 10 0 14 -27 12 -33 -2 -4 -8 -6 -7 -6
4 -1 9 -9 18 -18 20 -13 3 -6 11 27 30 47 29 62 29 39 2z m-512 -73 c2 -25
-24 -47 -66 -55 -19 -3 -39 -13 -46 -22 -10 -15 -13 -15 -28 0 -21 22 -12 42
24 55 16 5 29 8 29 5 0 -3 9 0 20 6 15 8 20 8 20 -2 0 -7 9 -3 22 10 12 12 23
22 23 22 0 0 1 -9 2 -19z m-400 -37 c-3 -3 -12 -4 -19 -1 -8 3 -5 6 6 6 11 1
17 -2 13 -5z m218 -35 c11 -16 1 -19 -13 -3 -7 8 -8 14 -3 14 5 0 13 -5 16
-11z m-400 -87 c-4 -4 -45 36 -45 44 0 3 4 3 9 0 5 -3 12 4 16 17 6 19 8 17
15 -18 4 -22 6 -41 5 -43z m934 69 c7 -5 10 -14 7 -20 -8 -13 -46 3 -46 19 0
12 20 13 39 1z m79 -42 c-29 -16 -21 -25 22 -23 49 2 56 -7 30 -37 l-20 -24
-21 25 c-14 17 -19 19 -15 8 4 -12 0 -18 -10 -18 -11 0 -15 6 -11 20 3 10 0
21 -5 22 -13 5 19 38 35 38 7 0 4 -5 -5 -11z m184 0 c15 -8 19 -8 14 0 -4 6
-1 11 8 11 17 0 29 -16 33 -44 4 -24 33 -57 44 -51 4 3 10 2 13 -3 2 -4 -4 -9
-15 -9 -28 -2 -49 -22 -49 -45 0 -15 -5 -18 -20 -13 -15 5 -18 3 -14 -9 3 -9
2 -16 -4 -16 -6 0 -9 11 -7 25 1 16 -5 31 -17 39 -11 8 -15 17 -10 20 19 12
23 68 6 88 -19 20 -12 23 18 7z m368 1 c0 -5 -2 -10 -4 -10 -3 0 -8 5 -11 10
-3 6 -1 10 4 10 6 0 11 -4 11 -10z m-238 -11 c16 -8 18 -13 8 -19 -13 -8 -50
8 -50 22 0 11 18 10 42 -3z m-678 -14 c-6 -16 -24 -21 -24 -7 0 11 11 22 21
22 5 0 6 -7 3 -15z m729 -21 c10 -10 -17 -44 -35 -44 -23 0 -23 19 0 36 19 15
26 17 35 8z m-445 -19 c-2 -6 -7 -9 -12 -7 -4 1 -6 -9 -2 -22 5 -20 3 -24 -9
-20 -18 7 -19 18 -4 45 10 20 34 23 27 4z m42 -15 c0 -5 -4 -10 -10 -10 -5 0
-10 5 -10 10 0 6 5 10 10 10 6 0 10 -4 10 -10z m-676 -25 c-4 -8 -10 -15 -15
-15 -5 0 -9 7 -9 15 0 8 7 15 15 15 9 0 12 -6 9 -15z m1180 -32 c-10 -7 -21
-13 -26 -13 -12 0 -10 28 2 35 6 4 7 12 3 18 -3 7 4 3 16 -8 21 -18 21 -20 5
-32z m-84 16 c0 -6 -4 -7 -10 -4 -5 3 -10 11 -10 16 0 6 5 7 10 4 6 -3 10 -11
10 -16z m-245 -39 c-5 -8 -11 -8 -17 -2 -6 6 -7 16 -3 22 5 8 11 8 17 2 6 -6
7 -16 3 -22z m-1268 -20 c7 0 13 -7 13 -15 0 -12 -4 -13 -19 -6 -19 11 -32 33
-30 54 0 7 5 2 11 -10 6 -13 17 -23 25 -23z m1388 1 c10 -17 -12 -21 -25 -6
-10 12 -10 15 3 15 9 0 18 -4 22 -9z m-1325 -32 c0 -6 -4 -7 -10 -4 -5 3 -10
11 -10 16 0 6 5 7 10 4 6 -3 10 -11 10 -16z m800 0 c0 -5 -4 -9 -10 -9 -5 0
-10 7 -10 16 0 8 5 12 10 9 6 -3 10 -10 10 -16z m-770 -8 c0 -6 -4 -13 -10
-16 -5 -3 -10 1 -10 9 0 9 5 16 10 16 6 0 10 -4 10 -9z m1371 -45 c-9 -18 -18
-29 -19 -24 -4 8 24 58 32 58 2 0 -4 -15 -13 -34z m-91 -31 c0 -8 -4 -15 -9
-15 -13 0 -22 16 -14 24 11 11 23 6 23 -9z m-250 -35 c8 -5 10 -10 4 -10 -7 0
-22 9 -35 21 -19 16 -20 18 -4 10 11 -6 27 -15 35 -21z m28 -45 c-3 -3 -9 2
-12 12 -6 14 -5 15 5 6 7 -7 10 -15 7 -18z m282 15 c0 -5 -5 -10 -11 -10 -5 0
-7 5 -4 10 3 6 8 10 11 10 2 0 4 -4 4 -10z m-1350 -10 c0 -5 -4 -10 -10 -10
-5 0 -10 5 -10 10 0 6 5 10 10 10 6 0 10 -4 10 -10z m958 -34 c7 -4 11 -13 9
-19 -3 -7 5 -22 17 -35 17 -19 17 -22 3 -16 -9 3 -17 10 -17 15 0 5 -7 9 -16
9 -9 0 -14 7 -12 18 2 9 -3 22 -12 29 -13 10 -13 11 0 10 8 -2 21 -6 28 -11z
m802 -38 c0 -4 -9 -8 -21 -8 -11 0 -18 4 -15 8 7 11 36 11 36 0z m-800 -88 c0
-5 -2 -10 -4 -10 -3 0 -8 5 -11 10 -3 6 -1 10 4 10 6 0 11 -4 11 -10z m332
-95 c4 -5 4 -13 2 -17 -10 -15 7 -30 21 -18 10 8 18 4 34 -19 12 -16 21 -36
21 -45 0 -9 6 -16 13 -15 24 3 38 -1 33 -10 -3 -5 4 -12 17 -16 13 -4 17 -8
10 -11 -10 -4 -10 -11 -2 -25 5 -11 15 -16 21 -13 7 4 8 3 4 -5 -4 -6 -13 -8
-19 -4 -7 4 -5 -4 4 -18 16 -24 16 -25 -9 -37 -19 -9 -28 -9 -33 -1 -5 8 -8 8
-13 0 -5 -8 -16 -6 -37 4 -33 18 -57 11 -39 -10 8 -9 8 -15 0 -20 -6 -4 -9 -1
-8 6 2 7 -6 15 -17 17 -11 2 -24 9 -28 16 -6 7 -7 5 -3 -6 5 -18 -7 -30 -34
-34 -8 -1 -26 -5 -40 -8 -14 -4 -19 -4 -12 0 19 9 15 34 -5 27 -16 -6 -16 -5
-4 10 12 16 10 22 -16 55 -17 20 -38 36 -47 36 -9 -1 -16 5 -16 13 0 10 6 13
16 9 8 -3 12 -2 9 4 -3 6 0 10 7 11 10 0 10 2 1 6 -9 3 -10 10 -3 23 5 10 8
25 5 32 -3 7 8 28 23 46 31 37 44 32 57 -21 4 -15 12 -26 19 -24 15 5 20 47 7
60 -6 6 -11 24 -11 41 l0 30 32 -30 c18 -16 36 -33 40 -39z m-1166 9 c9 -14
23 -23 30 -20 9 3 16 -3 18 -17 15 -72 15 -85 1 -91 -26 -10 -43 4 -50 42 -4
20 -13 49 -21 64 -26 51 -8 69 22 22z m928 -88 c-3 -14 -10 -23 -15 -20 -13 8
-11 42 4 47 17 6 19 3 11 -27z m-150 -51 c18 -14 18 -15 2 -21 -11 -4 -22 -1
-27 7 -19 31 -6 38 25 14z m-494 -65 c0 -5 -4 -10 -10 -10 -5 0 -10 5 -10 10
0 6 5 10 10 10 6 0 10 -4 10 -10z m500 0 c0 -5 -2 -10 -4 -10 -3 0 -8 5 -11
10 -3 6 -1 10 4 10 6 0 11 -4 11 -10z m-795 -20 c3 -5 1 -10 -4 -10 -6 0 -11
5 -11 10 0 6 2 10 4 10 3 0 8 -4 11 -10z m302 -100 c0 -35 -7 -37 -30 -12 -13
14 -14 21 -5 30 21 21 35 13 35 -18z m505 -122 c-7 -7 -14 -3 -21 9 -8 15 -6
25 7 41 17 21 17 21 20 -10 2 -17 -1 -35 -6 -40z m-282 -38 c0 -5 -4 -10 -10
-10 -5 0 -10 5 -10 10 0 6 5 10 10 10 6 0 10 -4 10 -10z"/>
<path d="M1070 8350 c0 -5 5 -10 11 -10 5 0 7 5 4 10 -3 6 -8 10 -11 10 -2 0
-4 -4 -4 -10z"/>
<path d="M220 7765 c0 -8 4 -15 9 -15 5 0 14 7 21 15 10 13 9 15 -9 15 -12 0
-21 -6 -21 -15z"/>
<path d="M570 7819 c0 -5 5 -7 10 -4 6 3 10 8 10 11 0 2 -4 4 -10 4 -5 0 -10
-5 -10 -11z"/>
<path d="M740 7289 c0 -5 5 -7 10 -4 6 3 10 8 10 11 0 2 -4 4 -10 4 -5 0 -10
-5 -10 -11z"/>
<path d="M1240 7360 c0 -5 5 -10 11 -10 5 0 7 5 4 10 -3 6 -8 10 -11 10 -2 0
-4 -4 -4 -10z"/>
<path d="M1231 7201 c-8 -5 -9 -11 -3 -15 5 -3 12 1 16 9 6 17 6 18 -13 6z"/>
<path d="M1610 6423 c0 -13 29 -38 35 -31 3 3 -4 13 -15 23 -11 10 -20 13 -20
8z"/>
<path d="M1630 6370 c-9 -6 -10 -10 -3 -10 6 0 15 5 18 10 8 12 4 12 -15 0z"/>
<path d="M1838 6343 c7 -3 16 -2 19 1 4 3 -2 6 -13 5 -11 0 -14 -3 -6 -6z"/>
<path d="M570 6470 c0 -5 5 -10 10 -10 6 0 10 5 10 10 0 6 -4 10 -10 10 -5 0
-10 -4 -10 -10z"/>
<path d="M347 6404 c116 -139 353 -307 469 -334 27 -6 30 -5 29 14 -1 16 -26
34 -106 76 -58 30 -123 66 -144 80 -61 37 -218 154 -234 174 -8 9 -24 22 -35
28 -13 7 -5 -7 21 -38z"/>
<path d="M1225 5483 c-38 -7 -81 -17 -95 -22 -14 -5 -37 -12 -52 -15 -23 -5
-28 -12 -28 -35 0 -27 -3 -29 -55 -35 -89 -10 -167 -68 -186 -138 -8 -31 -14
-38 -34 -38 -14 0 -46 -5 -72 -12 -27 -6 -64 -15 -83 -20 -19 -4 -46 -17 -60
-29 l-25 -21 128 6 c71 4 188 10 260 14 168 9 584 9 747 0 353 -21 373 -21
367 -11 -16 25 -100 52 -222 72 -29 4 -41 11 -43 26 -12 74 -94 140 -186 151
-49 6 -56 9 -56 29 0 26 -15 40 -50 48 -14 3 -61 14 -105 25 -72 16 -87 17
-150 5z"/>
<path d="M940 5098 c-143 -9 -156 -10 -318 -23 -120 -9 -119 -5 -34 -106 l57
-68 54 5 c30 3 59 8 64 11 5 3 196 7 425 8 397 2 656 -5 713 -20 23 -6 33 2
93 70 36 41 66 79 66 84 0 5 -46 12 -102 16 -57 5 -116 10 -133 11 -248 23
-633 28 -885 12z"/>
<path d="M920 4880 c-25 -5 -84 -9 -132 -9 -48 -1 -89 -5 -93 -10 -3 -5 26
-47 65 -92 l69 -82 456 -1 457 -1 41 46 c130 142 129 136 9 143 -172 10 -826
15 -872 6z"/>
<path d="M1060 4649 c-172 -9 -218 -19 -257 -56 -36 -34 -39 -46 -20 -83 12
-24 51 -133 75 -210 6 -19 16 -62 21 -95 6 -33 14 -71 17 -85 3 -14 9 -72 14
-130 6 -58 14 -152 20 -210 13 -133 13 -313 1 -433 -6 -51 -12 -155 -16 -232
-3 -77 -8 -158 -10 -180 -3 -22 -8 -60 -10 -85 -35 -313 -45 -391 -84 -655
-31 -201 -48 -308 -55 -335 -4 -14 -13 -65 -21 -115 -9 -49 -22 -124 -30 -165
-7 -41 -21 -113 -30 -160 -9 -47 -18 -94 -20 -105 -3 -11 -11 -51 -19 -90 -8
-38 -22 -101 -30 -140 -8 -38 -17 -81 -20 -95 -12 -54 -37 -178 -47 -230 -6
-30 -14 -64 -19 -75 -5 -11 -16 -56 -24 -100 -9 -44 -23 -109 -32 -145 -8 -36
-21 -92 -29 -125 -7 -33 -16 -71 -20 -85 -15 -55 -24 -106 -25 -132 l0 -28
135 0 c131 0 136 1 144 23 19 51 40 125 47 162 3 22 10 45 14 50 4 6 13 33 19
60 6 28 13 57 16 65 8 26 36 133 50 190 30 122 57 238 69 290 7 30 15 62 19
70 3 8 13 51 22 95 23 117 52 254 82 381 14 61 19 71 35 66 19 -4 19 -25 18
-691 -1 -377 -1 -703 -1 -723 l1 -38 227 0 226 0 -6 730 c-6 716 -6 730 13
730 25 0 27 -5 45 -92 35 -164 44 -207 65 -298 31 -138 77 -337 85 -370 2 -8
11 -42 20 -75 9 -33 22 -85 30 -115 32 -126 66 -251 105 -390 12 -41 24 -85
27 -97 5 -23 8 -23 149 -23 l144 0 0 28 c0 15 -5 45 -11 67 -6 22 -19 78 -30
125 -11 47 -26 113 -34 148 -42 176 -97 423 -135 607 -12 55 -28 132 -36 170
-8 39 -22 104 -30 145 -8 41 -16 84 -18 95 -3 11 -12 61 -21 110 -33 181 -44
241 -50 270 -6 28 -15 84 -51 315 -8 52 -23 161 -34 242 -10 81 -21 151 -23
155 -3 4 -8 51 -12 103 -3 52 -10 109 -15 125 -5 17 -12 84 -15 150 -4 66 -9
134 -11 150 -18 141 -25 591 -12 760 12 158 30 310 38 325 4 8 11 38 15 65 6
48 37 159 55 200 5 11 18 41 29 67 12 26 21 53 21 60 0 7 -17 27 -38 44 -32
26 -50 32 -137 43 -116 14 -394 19 -575 10z m130 -263 c0 -154 -1 -164 -19
-169 -11 -3 -22 -3 -25 0 -5 5 -133 261 -153 306 l-12 27 104 0 105 0 0 -164z
m324 -5 c-73 -148 -86 -169 -104 -164 -19 5 -20 13 -20 169 l0 164 104 0 104
0 -84 -169z"/>
<path d="M4920 2520 c0 -5 -5 -10 -10 -10 -6 0 -43 -15 -83 -34 -132 -61 -166
-76 -176 -76 -8 0 -10 -349 -9 -1162 l3 -1163 143 -3 142 -3 0 951 0 950 23 0
c17 -1 36 -24 87 -106 77 -123 139 -223 235 -375 39 -60 77 -121 85 -135 31
-49 172 -273 249 -394 44 -69 101 -159 126 -200 25 -41 86 -138 135 -215 49
-77 101 -160 116 -185 14 -25 41 -67 59 -95 18 -27 54 -83 80 -123 l47 -73
146 3 147 3 3 800 c2 440 0 990 -4 1223 l-6 423 -22 -7 c-27 -9 -180 -79 -226
-104 l-35 -19 3 -871 3 -870 -24 0 c-22 0 -52 30 -70 70 -4 8 -25 42 -47 75
-21 33 -53 83 -70 110 -17 28 -48 77 -70 110 -21 33 -57 89 -79 125 -22 36
-76 121 -120 190 -44 69 -110 174 -148 233 -37 59 -85 134 -105 165 -20 31
-58 91 -83 132 -25 41 -64 102 -85 135 -22 33 -53 83 -70 110 -17 28 -49 77
-71 110 -21 33 -42 67 -46 75 -4 8 -22 36 -40 61 -18 26 -33 50 -33 53 0 4 -6
13 -12 21 -7 7 -25 33 -40 59 -25 43 -48 60 -48 36z"/>
<path d="M7628 2500 l-417 -5 -87 -80 c-49 -44 -111 -101 -139 -126 -27 -26
-67 -62 -87 -80 l-38 -34 3 -889 3 -888 39 -36 c22 -20 98 -91 168 -159 71
-68 136 -123 145 -124 9 -1 273 -1 586 0 l569 2 165 166 165 166 -7 150 c-3
83 -6 314 -6 514 l0 363 -408 0 -407 0 -144 -144 c-79 -79 -139 -146 -135
-148 5 -3 183 -4 397 -3 l387 1 0 -382 0 -381 -82 -6 c-46 -4 -316 -7 -600 -7
l-518 0 0 920 0 919 591 1 c325 0 597 4 604 8 12 6 82 70 246 222 27 25 49 51
49 58 0 13 -159 13 -1042 2z"/>
<path d="M3553 2491 c-391 -3 -714 -8 -717 -11 -121 -116 -266 -265 -266 -274
0 -8 105 -11 400 -10 l400 1 1 -66 c1 -64 5 -906 8 -1683 l1 -378 155 0 155 0
0 1065 0 1065 38 -1 c20 -1 138 -1 262 0 l226 1 134 135 c74 74 136 141 138
150 3 13 -12 15 -110 13 -62 -1 -433 -4 -825 -7z"/>
</g>
</svg>
